<?xml version="1.0" standalone="no"?>
<!DOCTYPE svg PUBLIC "-//W3C//DTD SVG 20010904//EN"
 "http://www.w3.org/TR/2001/REC-SVG-20010904/DTD/svg10.dtd">
<svg version="1.0" xmlns="http://www.w3.org/2000/svg"
 width="700.000000pt" height="700.000000pt" viewBox="0 0 700.000000 700.000000"
 preserveAspectRatio="xMidYMid meet">
<metadata>
Created by potrace 1.11, written by Peter Selinger 2001-2013
</metadata>
<g transform="translate(0.000000,700.000000) scale(0.100000,-0.100000)"
fill="#000000" stroke="none">
<path d="M1877 6630 c-151 -48 -264 -176 -297 -335 -7 -34 -9 -943 -8 -2825
l3 -2775 23 -57 c53 -131 156 -230 278 -268 65 -20 85 -20 1624 -20 1539 0
1559 0 1624 20 122 38 225 137 278 268 l23 57 3 2775 c1 1882 -1 2791 -8 2825
-33 161 -147 288 -299 335 -62 20 -97 20 -1625 19 -1496 0 -1563 -1 -1619 -19z
m3373 -3040 l0 -2360 -1750 0 -1750 0 0 2360 0 2360 1750 0 1750 0 0 -2360z"/>
<path d="M3026 4839 c-17 -25 -15 -32 43 -147 l40 -80 -50 -39 c-72 -54 -144
-145 -189 -238 -71 -144 -70 -133 -70 -872 l0 -663 84 0 85 0 3 -240 c3 -226
4 -241 24 -260 11 -11 36 -23 55 -26 28 -5 41 -1 67 21 l32 27 0 239 0 239
350 0 350 0 0 -239 0 -239 32 -27 c26 -22 39 -26 67 -21 19 3 44 15 55 26 20
19 21 34 24 260 l3 240 85 0 84 0 0 663 c0 739 1 728 -70 872 -45 93 -117 184
-189 238 l-50 38 49 101 c38 78 47 104 40 119 -14 26 -28 32 -56 25 -18 -5
-35 -28 -70 -99 -26 -50 -47 -93 -49 -95 -1 -1 -22 6 -46 17 -60 26 -185 51
-259 51 -74 0 -199 -25 -259 -51 -24 -11 -45 -18 -46 -17 -2 2 -21 40 -43 84
-23 45 -48 89 -57 98 -23 22 -51 20 -69 -5z"/>
<path d="M2510 4113 c-8 -3 -25 -15 -37 -26 l-23 -20 0 -392 0 -392 23 -20
c32 -29 56 -35 94 -22 62 20 63 27 63 434 0 404 -1 413 -61 434 -35 12 -37 12
-59 4z"/>
<path d="M4425 4106 c-54 -23 -55 -35 -55 -432 0 -406 1 -413 63 -433 38 -13
62 -7 95 22 l22 20 0 392 0 392 -22 21 c-31 28 -67 34 -103 18z"/>
</g>
</svg>
